<?xml version="1.0" standalone="no"?>
<!DOCTYPE svg PUBLIC "-//W3C//DTD SVG 20010904//EN"
 "http://www.w3.org/TR/2001/REC-SVG-20010904/DTD/svg10.dtd">
<svg version="1.0" xmlns="http://www.w3.org/2000/svg"
 width="500.000000pt" height="500.000000pt" viewBox="0 0 500.000000 500.000000"
 preserveAspectRatio="xMidYMid meet">
<metadata>
Created by potrace 1.14, written by Peter Selinger 2001-2017
</metadata>
<g transform="translate(0.000000,500.000000) scale(0.100000,-0.100000)"
fill="#000000" stroke="none">
<path d="M2330 4830 c-47 -10 -101 -20 -120 -23 -93 -15 -176 -32 -255 -53
-11 -3 -73 -7 -138 -10 -117 -4 -181 -20 -242 -61 -11 -7 -27 -13 -37 -13 -10
0 -18 -4 -18 -10 0 -5 -7 -10 -16 -10 -17 0 -75 -30 -85 -44 -4 -5 -14 -6 -22
-3 -8 3 -23 -3 -34 -15 -10 -11 -37 -29 -60 -40 -23 -11 -44 -26 -47 -34 -3
-8 -12 -14 -19 -14 -8 0 -33 -13 -55 -30 -23 -16 -46 -30 -51 -30 -6 0 -14 -6
-18 -12 -10 -17 -49 -38 -67 -38 -8 0 -19 -7 -24 -16 -5 -8 -16 -16 -26 -18
-9 -1 -25 -10 -36 -18 -10 -9 -31 -25 -47 -35 -15 -10 -33 -22 -40 -28 -28
-23 -40 -31 -76 -50 -40 -21 -217 -226 -217 -251 0 -8 -4 -14 -8 -14 -5 0 -15
-12 -23 -27 -7 -16 -28 -51 -46 -80 -18 -28 -40 -71 -49 -95 -10 -23 -26 -54
-36 -67 -10 -13 -18 -31 -18 -41 0 -10 -9 -29 -20 -43 -11 -14 -20 -30 -20
-36 0 -6 -3 -11 -7 -11 -5 0 -16 -27 -27 -60 -10 -33 -22 -60 -26 -60 -5 0
-11 -19 -15 -42 -4 -24 -16 -74 -28 -113 -11 -38 -22 -74 -23 -80 -1 -5 -9
-35 -18 -66 -8 -30 -17 -73 -20 -95 -2 -21 -7 -46 -10 -54 -3 -8 -8 -31 -11
-50 -3 -19 -8 -46 -11 -60 -5 -32 -15 -212 -18 -355 -2 -79 -7 -119 -19 -142
-18 -33 -22 -65 -10 -76 4 -4 8 -31 9 -60 3 -56 5 -66 28 -139 9 -29 11 -50 5
-53 -5 -4 -4 -15 3 -28 6 -12 10 -24 9 -27 -4 -10 23 -90 31 -90 3 0 6 -12 6
-28 -1 -15 2 -38 7 -52 14 -46 95 -205 134 -260 21 -30 48 -84 61 -120 13 -36
29 -74 37 -85 7 -11 13 -28 13 -38 0 -10 11 -33 25 -51 14 -18 25 -36 25 -41
0 -4 22 -33 50 -65 27 -31 47 -59 44 -62 -2 -3 7 -13 21 -22 14 -9 25 -23 25
-30 0 -23 106 -153 179 -220 24 -23 51 -50 60 -60 9 -10 25 -26 35 -35 10 -9
28 -25 40 -36 118 -112 390 -288 469 -302 10 -2 32 -11 50 -20 18 -9 35 -16
39 -15 4 1 44 -16 90 -37 88 -40 287 -106 365 -121 27 -5 86 -18 133 -29 91
-22 122 -23 465 -25 278 -1 471 12 635 42 30 6 78 13 105 16 75 7 113 16 185
41 65 23 211 92 220 104 3 4 18 12 34 19 86 38 247 170 336 277 14 17 64 71
110 122 47 50 91 99 98 108 58 71 118 142 129 153 7 7 13 16 13 20 0 4 12 21
28 37 61 67 150 241 172 335 7 30 19 71 27 90 26 60 31 74 42 109 6 18 8 37 6
41 -3 5 -1 11 5 15 12 7 53 85 45 85 -2 0 9 23 25 51 17 27 34 67 39 87 5 20
19 64 32 97 20 55 22 79 24 270 1 116 -3 221 -8 235 -6 14 -11 59 -13 100 -1
41 -7 98 -14 125 -7 28 -14 79 -17 115 -3 36 -8 72 -12 80 -4 8 -6 28 -5 44 2
19 -6 41 -24 64 -21 28 -27 47 -29 101 -4 77 -10 130 -19 151 -4 8 -6 24 -5
36 1 11 -7 32 -19 46 -11 14 -20 33 -20 41 0 8 -10 27 -22 42 -24 31 -88 154
-88 170 0 21 -46 122 -73 164 -16 23 -73 87 -126 140 -53 53 -130 138 -171
189 -41 50 -78 92 -81 92 -4 0 -20 14 -36 31 -15 17 -60 53 -100 80 -40 27
-80 57 -90 67 -10 10 -30 24 -44 31 -15 7 -46 32 -71 55 -62 58 -107 96 -113
96 -4 0 -22 11 -42 25 -20 13 -40 22 -45 19 -4 -3 -20 3 -36 14 -15 11 -47 27
-72 35 -25 9 -70 27 -101 41 -31 13 -59 22 -62 20 -3 -3 -14 -1 -25 5 -16 8
-83 25 -217 55 -45 10 -125 38 -125 44 0 11 -50 13 -310 17 -196 2 -249 0
-320 -15z"/>
</g>
</svg>
